<svg id="Calque_1" data-name="Calque 1" xmlns="http://www.w3.org/2000/svg" viewBox="0 0 247.80083 66.52607"><defs><style>.cls-1{fill:#0076bd;}.cls-2{fill:#fff;}</style></defs><title>logo</title><rect class="cls-1" width="247.80083" height="66.52607"/><path class="cls-2" d="M44.27682,34.56483H31.95891a4.22369,4.22369,0,0,0-1.02329-1.56209,4.66135,4.66135,0,0,0-1.78231-1.00867c-.82043-.28645-3.10182-1.083-5.05814,0a2.50823,2.50823,0,0,0-1.29642,1.35173c-.183.57033-.14612,1.43074.30471,1.71177a.67321.67321,0,0,0,.3353.09632c.99707.04328,1.95424.43587,2.94885.51809.32062.0265,2.61857.37377,7.21446,1.06831,4.23641.64022,5.57563.89038,7.02263,1.52647,2.69318,1.18389,4.00854,2.189,4.86623,4.8305,1.07331,3.30561-.4519,6.74608-3.32853,9.0348a9.83781,9.83781,0,0,1-3.59059,1.62524c-.00007,0-.5576.19082-1.15588.35794a38.662,38.662,0,0,1-8.7826,1.16916c-3.94913.02187-7.55119.04181-11.747-1.64342-2.19689-.88236-4.67195-1.919-5.52446-4.3452a5.90485,5.90485,0,0,1-.04851-3.48913H23.14015a8.98372,8.98372,0,0,0,5.58119,2.6499c.49668.0291,3.312.19405,4.039-1.24352a1.981,1.981,0,0,0,0-1.80762,1.74673,1.74673,0,0,0-.71489-.60869,5.90118,5.90118,0,0,0-2.27248-.69914,104.143,104.143,0,0,1-10.3044-1.5285,18.83221,18.83221,0,0,1-2.284-.54689,11.21367,11.21367,0,0,1-3.76587-1.69481c-2.54555-2.06708-2.25412-6.039-2.238-6.22361a8.815,8.815,0,0,1,3.88248-6.25018c1.58739-1.10331,3.21929-1.33842,6.41832-1.7636a44.36247,44.36247,0,0,1,11.77776-.03934c3.88526.51464,5.779,1.27941,7.26846,2.20506a7.6943,7.6943,0,0,1,2.85049,2.77795C43.98429,32.10849,44.83454,33.12018,44.27682,34.56483Z" transform="translate(3.90041)"/><path class="cls-2" d="M88.48952,14.94782H84.75761a1.8643,1.8643,0,0,0-.31-.63457,1.402,1.402,0,0,0-.54-.40975,1.47717,1.47717,0,0,0-1.53245,0,.93727.93727,0,0,0-.39277.54911c-.05544.23169-.04427.58121.09232.69537a.16591.16591,0,0,0,.10159.03913c.30208.01758.59207.17707.8934.21046.09714.01077.79334.15184,2.18574.434a6.49563,6.49563,0,0,1,2.12762.6201,2.65524,2.65524,0,0,1,1.47431,1.9623,4.0584,4.0584,0,0,1-1.00843,3.67021,2.69557,2.69557,0,0,1-1.08783.66022s-.16894.07752-.35019.14541a8.90591,8.90591,0,0,1-2.66084.47495,6.659,6.659,0,0,1-3.559-.66761A2.8419,2.8419,0,0,1,78.51738,20.932a3.18431,3.18431,0,0,1-.0147-1.41739h3.58313a2.55007,2.55007,0,0,0,1.69092,1.07647c.15048.01182,1.00342.07883,1.22369-.50516a1.05255,1.05255,0,0,0,0-.73431.61358.61358,0,0,0-.21659-.24727,1.4593,1.4593,0,0,0-.68849-.284,24.15669,24.15669,0,0,1-3.12189-.62093,4.53284,4.53284,0,0,1-.692-.22216,3.07063,3.07063,0,0,1-1.14093-.68848,3.96,3.96,0,0,1-.678-2.52822,3.7805,3.7805,0,0,1,1.17626-2.539,3.37523,3.37523,0,0,1,1.94454-.71643,10.05984,10.05984,0,0,1,3.56827-.016,4.32369,4.32369,0,0,1,2.2021.89576,2.886,2.886,0,0,1,.8636,1.12849A1.96506,1.96506,0,0,1,88.48952,14.94782Z" transform="translate(3.90041)"/><path class="cls-2" d="M86.766,26.75666H97.67573v9.32806H109.838V26.71063l11.19877.176q.02205,13.60112.04411,27.20222l-11.10666-.00729V43.15312H97.81294V54.09968l-10.83172.06382Q86.87363,40.46008,86.766,26.75666Z" transform="translate(3.90041)"/><path class="cls-2" d="M83.44561,43.69895A10.83467,10.83467,0,0,1,81.817,49.10521c-1.95031,3.05335-5.0216,4.13329-7.86012,5.13139a26.46852,26.46852,0,0,1-9.20568,1.35947,22.99493,22.99493,0,0,1-11.67072-3.10815,10.892,10.892,0,0,1-5.50232-8.22658,22.40894,22.40894,0,0,1-.52165-4.53715,16.64929,16.64929,0,0,1,2.00916-7.35786A10.9096,10.9096,0,0,1,51.611,29.22281a11.16731,11.16731,0,0,1,3.48345-1.95271c5.71093-2.1052,12.70312-1.60307,13.58088-1.53349,3.26692.259,5.78851.48608,8.62595,2.0424a11.5812,11.5812,0,0,1,3.91923,3.21225,11.32979,11.32979,0,0,1,2.225,6.20744H71.44679a5.81436,5.81436,0,0,0-1.74136-3.40276A6.169,6.169,0,0,0,64.54158,32.444,7.05023,7.05023,0,0,0,60.513,34.75221a7.78613,7.78613,0,0,0-1.82244,3.27823,7.91159,7.91159,0,0,0,.03492,3.99489,8.033,8.033,0,0,0,3.69385,5.47751A6.80645,6.80645,0,0,0,68.458,47.83a6.36717,6.36717,0,0,0,2.83141-2.84375l.14618-1.28732Z" transform="translate(3.90041)"/><path class="cls-2" d="M70.33191,18.12407a5.60207,5.60207,0,0,1-.46987,2.1554,4.10363,4.10363,0,0,1-2.26778,2.04581,5.7685,5.7685,0,0,1-2.656.542,5.24819,5.24819,0,0,1-3.3672-1.23917,4.02209,4.02209,0,0,1-.94648-1.123,5.70233,5.70233,0,0,1-.641-2.15682,12.2155,12.2155,0,0,1-.15051-1.8089,8.66858,8.66858,0,0,1,.57968-2.93347,4.37775,4.37775,0,0,1,.73437-1.25327,3.1406,3.1406,0,0,1,1.005-.77852,7.64312,7.64312,0,0,1,3.91831-.61138,4.41033,4.41033,0,0,1,2.48873.81427,3.8123,3.8123,0,0,1,1.13076,1.28068,5.73691,5.73691,0,0,1,.64194,2.47482H66.87a2.75248,2.75248,0,0,0-.50241-1.35663,1.422,1.422,0,0,0-1.48986-.539,2.04761,2.04761,0,0,0-1.16231.92025,3.61742,3.61742,0,0,0-.5258,1.307,4.3226,4.3226,0,0,0,.01007,1.59271,3.48975,3.48975,0,0,0,1.06574,2.1838,1.505,1.505,0,0,0,1.74226.13044,2.3747,2.3747,0,0,0,.81691-1.13376l.04217-.51323Z" transform="translate(3.90041)"/><path class="cls-2" d="M157.95171,26.77606h11.0211V45.462a6.54959,6.54959,0,0,0,2.80676,2.38484c2.56959,1.105,5.965.42241,7.25183-1.50314a6.96939,6.96939,0,0,0,.83218-2.26682,10.91737,10.91737,0,0,0,.29317-2.80236c-.03218-1.97561-.01755-7.29122-.02968-14.50926h10.55969v6.5453c0,3.95985-.06387,7.9211.02317,11.879.05514,2.507-1.14182,4.46363-2.47174,6.37182-.62389.8952-3.87758,2.35626-5.2405,2.60911-.84474.15671-1.41633.33694-2.42419.50444a35.30925,35.30925,0,0,1-7.69924.51447c-.85844-.0401-2.4873-.26272-5.745-.708a12.36535,12.36535,0,0,1-2.21828-.41457,10.1067,10.1067,0,0,1-4.2218-2.64845,10.585,10.585,0,0,1-2.74539-7.051Q157.94771,35.57175,157.95171,26.77606Z" transform="translate(3.90041)"/><path class="cls-2" d="M48.7462,11.66257h3.06216l3.09906,6.05869V11.7461H58.0829v10.828H54.67454l-2.60572-5.16338-.67364.09629v5.0907l-2.649.12521Z" transform="translate(3.90041)"/><path class="cls-2" d="M11.77407,22.39414V11.45693h7.73554v3.07334H15.03747l-.26263.96988h4.21634v2.74792H14.96409v4.0871A8.88993,8.88993,0,0,1,11.77407,22.39414Z" transform="translate(3.90041)"/><path class="cls-2" d="M73.029,12.10822l.65175-.65173H76.0395V22.35475H73.029Z" transform="translate(3.90041)"/><path class="cls-2" d="M224.9075,38.98116c.17337-.32939.21363-.5184.33038-.611,2.20312-1.74848,2.63631-4.9297,1.83089-7.72663-.55553-1.92916-3.55432-3.86433-5.94954-3.92375-1.84283-.04572-3.68769-.00911-5.53164-.00911H194.99167V54.16583l14.96653.352c9.70026.21763,17.01369-2.41932,18.34747-5.80783a8.647,8.647,0,0,0,.47651-4.814,7.81405,7.81405,0,0,0-1.5896-3.0418A8.04159,8.04159,0,0,0,224.9075,38.98116ZM205.59592,33.653H215.348a1.881,1.881,0,0,1-.03962,3.02607h-9.71246ZM216.162,47.214l-10.6382-.00516V43.15666h10.26971a3.06,3.06,0,0,1,1.19033.771,2.2135,2.2135,0,0,1,.69521,1.2703A2.26759,2.26759,0,0,1,216.162,47.214Z" transform="translate(3.90041)"/><path class="cls-2" d="M146.33346,26.7557H133.11086q-5.7975,13.66671-11.595,27.33344H132.7162c.41958-1.02594.81913-2.00293,1.24541-3.04541h11.303c.42181,1.03616.84994,2.08779,1.23725,3.03918H157.9331Q152.08286,40.30065,146.33346,26.7557Zm-9.96395,17.29c1.07612-2.96317,2.15774-5.94142,3.30588-9.10271,1.0842,3.13985,2.08685,6.04368,3.14312,9.10271Z" transform="translate(3.90041)"/><path class="cls-2" d="M42.78625,11.45693H38.39881L34.55144,22.50739h3.71643l.41325-1.23121h3.75049l.41054,1.22869h3.793Q44.694,16.93293,42.78625,11.45693ZM39.48008,18.447c.35707-1.198.716-2.402,1.09694-3.68008.35975,1.26939.69244,2.44336,1.04293,3.68008Z" transform="translate(3.90041)"/><path class="cls-2" d="M32.41044,15.76783a3.20809,3.20809,0,0,0-.57727-3.01,3.4555,3.4555,0,0,0-2.34306-1.21216q-3.57124.01469-7.14249.02935.01856,5.41455.03708,10.8291h3.56153V18.88272h2.70029a4.879,4.879,0,0,1,.50624,1.08145,5.03046,5.03046,0,0,1,.16272,2.40631h2.97584a9.86107,9.86107,0,0,0-.05345-2.71838,9.95415,9.95415,0,0,0-1.43945-2.27225A3.0308,3.0308,0,0,0,32.41044,15.76783Zm-4.003.3241H26.07381v-1.971h1.81761a1.01895,1.01895,0,0,1,.516,1.971Z" transform="translate(3.90041)"/></svg>